<?xml version="1.0" standalone="no"?>
<!DOCTYPE svg PUBLIC "-//W3C//DTD SVG 20010904//EN"
 "http://www.w3.org/TR/2001/REC-SVG-20010904/DTD/svg10.dtd">
<svg version="1.0" xmlns="http://www.w3.org/2000/svg"
 width="1121.000000pt" height="286.000000pt" viewBox="0 0 1121.000000 286.000000"
 preserveAspectRatio="xMidYMid meet">

<g transform="translate(0.000000,286.000000) scale(0.100000,-0.100000)"
fill="#000000" stroke="none">
<path d="M5887 2479 c-340 -50 -585 -233 -708 -531 -72 -175 -106 -395 -96
-628 10 -225 57 -410 144 -560 52 -89 181 -217 267 -265 146 -81 334 -125 531
-125 633 2 965 368 965 1065 0 535 -199 879 -580 1005 -136 44 -368 62 -523
39z m313 -87 c96 -47 147 -141 177 -321 11 -71 16 -204 20 -513 9 -714 -19
-922 -141 -1043 -62 -62 -116 -80 -233 -79 -221 2 -314 144 -343 525 -13 173
-13 775 0 948 22 288 76 423 192 482 93 47 235 48 328 1z"/>
<path d="M1062 2433 l3 -28 93 -3 92 -3 0 -969 0 -969 -92 -3 -93 -3 -3 -27
-3 -28 555 0 556 0 0 30 0 30 -180 0 -180 0 0 389 0 388 38 7 c20 3 73 6 117
6 277 0 525 78 651 204 100 100 141 203 151 376 16 293 -100 483 -347 565
-162 54 -201 57 -803 62 l-558 5 3 -29z m978 -59 c56 -32 96 -94 115 -176 35
-154 29 -563 -10 -695 -39 -131 -118 -193 -256 -201 l-79 -5 0 553 0 552 98
-4 c75 -3 106 -8 132 -24z"/>
<path d="M2912 2433 l3 -28 93 -3 92 -3 0 -969 0 -969 -92 -3 -93 -3 -3 -27
-3 -28 471 0 471 0 -3 27 -3 28 -92 3 -93 3 0 489 0 490 100 0 c62 0 113 -5
133 -14 41 -17 83 -65 98 -114 6 -21 15 -159 19 -322 11 -370 27 -438 123
-527 59 -55 147 -82 287 -90 282 -15 380 53 431 301 24 115 24 113 -5 118 -22
4 -24 0 -40 -71 -29 -138 -73 -192 -140 -175 -53 13 -59 44 -67 329 -6 224
-10 269 -28 326 -45 142 -136 212 -326 253 l-60 13 40 7 c22 4 72 14 110 23
240 54 349 222 332 513 -13 212 -102 333 -289 391 -154 48 -208 52 -856 56
l-613 5 3 -29z m982 -44 c85 -21 142 -90 165 -197 14 -66 15 -360 1 -433 -6
-30 -24 -82 -40 -115 -51 -105 -125 -144 -271 -144 l-89 0 0 450 0 450 96 0
c52 0 115 -5 138 -11z"/>
<path d="M8210 2430 l0 -30 68 0 67 0 365 -1015 365 -1015 121 0 122 0 60 173
c32 94 189 551 347 1015 l288 842 69 0 68 0 0 30 0 30 -220 0 -220 0 0 -30 0
-30 111 0 c85 0 110 -3 107 -12 -3 -7 -114 -334 -248 -725 -134 -392 -246
-713 -250 -713 -3 0 -110 320 -238 711 -128 391 -236 717 -239 725 -4 11 13
14 96 14 l101 0 0 30 0 30 -470 0 -470 0 0 -30z"/>
<path d="M7297 1303 c-4 -3 -7 -24 -7 -45 l0 -38 365 0 365 0 0 45 0 45 -358
0 c-197 0 -362 -3 -365 -7z"/>
</g>
</svg>
